<?xml version="1.0" standalone="no"?>
<!DOCTYPE svg PUBLIC "-//W3C//DTD SVG 20010904//EN"
 "http://www.w3.org/TR/2001/REC-SVG-20010904/DTD/svg10.dtd">
<svg version="1.0" xmlns="http://www.w3.org/2000/svg"
 width="512.000000pt" height="512.000000pt" viewBox="0 0 512.000000 512.000000"
 preserveAspectRatio="xMidYMid meet">

<g transform="translate(0.000000,512.000000) scale(0.100000,-0.100000)"
fill="#000000" stroke="none">
<path d="M1 4268 c1 -529 5 -833 10 -800 18 105 88 198 186 247 51 26 69 29
143 29 65 0 96 -6 133 -22 69 -31 140 -102 171 -172 l27 -60 183 0 183 0 43
66 c83 129 201 261 331 370 42 35 88 68 103 74 36 13 79 -9 95 -49 17 -39 -2
-76 -62 -118 -107 -77 -291 -286 -376 -425 -47 -78 -47 -78 -291 -78 l-218 0
-6 -27 c-9 -38 -69 -124 -104 -150 -76 -56 -113 -68 -212 -68 -80 0 -102 4
-140 24 -99 51 -175 154 -190 256 -4 27 -8 -328 -8 -790 -1 -755 1 -834 14
-785 16 62 69 145 112 177 76 56 113 68 212 68 101 0 139 -13 217 -72 36 -28
88 -105 98 -145 l7 -28 139 0 c76 0 139 3 139 6 0 4 -18 51 -40 106 -46 116
-90 269 -90 316 0 40 38 82 74 82 48 0 74 -37 101 -145 31 -120 83 -254 136
-352 44 -82 48 -109 18 -147 l-20 -26 -224 0 -224 0 -27 -60 c-31 -70 -102
-141 -171 -172 -75 -33 -200 -31 -274 5 -92 45 -169 143 -189 240 -4 24 -8
-330 -9 -800 l-1 -843 423 1 c249 1 402 5 374 9 -108 19 -199 89 -248 193 -57
121 -33 268 59 366 174 185 474 120 561 -121 l11 -28 310 0 310 0 0 264 0 264
-30 12 c-155 64 -442 284 -552 423 -44 57 -48 88 -13 122 46 47 76 36 174 -62
154 -155 280 -248 456 -338 64 -33 104 -60 112 -76 16 -30 18 -595 3 -649 -11
-41 -61 -94 -103 -109 -18 -7 -147 -11 -347 -11 l-319 0 -24 -54 c-49 -107
-145 -179 -259 -196 -29 -4 909 -8 2085 -9 l2137 -1 -1 1693 c0 1504 -2 1686
-15 1637 -16 -62 -69 -145 -112 -177 -76 -56 -113 -68 -212 -68 -99 0 -136 12
-212 68 -35 26 -95 112 -104 150 l-6 27 -144 0 -143 0 29 -65 c67 -148 126
-383 137 -542 l6 -83 357 0 c346 0 358 -1 384 -21 37 -29 37 -89 0 -118 -26
-20 -37 -21 -436 -21 l-409 0 -23 23 c-20 20 -25 38 -30 118 -20 274 -80 498
-187 696 -45 84 -48 115 -14 148 l24 25 220 0 220 0 27 60 c31 70 101 140 171
172 67 31 198 31 265 1 95 -43 178 -146 198 -247 4 -23 8 332 9 802 l1 842
-422 -1 c-250 -1 -403 -5 -375 -9 108 -19 199 -89 248 -193 57 -121 33 -268
-59 -366 -136 -145 -357 -142 -492 5 -26 30 -55 73 -62 96 l-15 43 -311 3
-312 2 0 -263 0 -263 55 -27 c213 -104 485 -326 485 -394 -1 -42 -42 -83 -84
-83 -8 0 -61 41 -118 90 -125 110 -239 188 -373 256 -65 32 -104 59 -112 75
-16 30 -18 595 -3 649 11 41 61 94 103 109 18 7 147 11 347 11 l319 0 24 54
c48 104 140 177 248 195 33 5 -615 9 -1651 9 -938 0 -1683 -4 -1657 -8 113
-19 206 -91 254 -196 l24 -54 319 0 c200 0 329 -4 347 -11 42 -15 92 -68 103
-109 5 -19 10 -138 10 -264 l0 -228 23 5 c12 3 62 17 112 31 114 33 149 33
180 1 31 -30 32 -66 3 -100 -18 -19 -47 -32 -121 -50 -54 -14 -138 -41 -188
-60 -92 -36 -109 -36 -146 -2 -23 20 -23 22 -23 324 l0 303 -310 0 -310 0 -10
-27 c-31 -88 -99 -161 -184 -199 -129 -59 -279 -29 -378 77 -61 65 -88 136
-88 232 0 160 119 300 277 327 28 4 -125 8 -374 9 l-423 1 1 -852z m2618 816
c20 -26 21 -38 21 -383 l0 -357 125 -12 c68 -6 140 -18 160 -26 64 -27 71 -96
15 -137 -24 -18 -31 -18 -140 -4 -63 9 -151 18 -194 21 -65 5 -83 10 -102 30
l-24 23 0 409 c0 399 1 410 21 436 16 20 29 26 59 26 30 0 43 -6 59 -26z m151
-1095 c300 -40 599 -193 820 -418 293 -299 442 -708 409 -1121 -16 -199 -55
-341 -144 -525 -255 -528 -828 -855 -1406 -804 -204 17 -345 56 -524 143 -145
71 -268 159 -385 276 -394 394 -526 967 -344 1493 72 208 185 387 345 546 327
328 762 472 1229 410z m-1771 -845 c26 -33 26 -37 -4 -142 -29 -102 -51 -238
-60 -376 -6 -85 -10 -102 -31 -123 l-23 -23 -409 0 c-399 0 -410 1 -436 21
-37 29 -37 89 0 118 26 20 38 21 384 21 l357 0 6 88 c12 158 66 382 104 424
26 29 87 24 112 -8z m3286 -869 c17 -16 25 -35 25 -57 0 -47 -44 -200 -90
-316 -22 -55 -40 -102 -40 -106 0 -3 63 -6 139 -6 l139 0 6 28 c9 37 69 123
104 149 76 56 113 68 212 68 84 0 101 -3 145 -27 66 -35 128 -100 159 -168 33
-71 36 -174 6 -254 -58 -154 -239 -247 -394 -202 -106 31 -177 92 -221 189
l-26 57 -224 0 -224 0 -20 26 c-30 38 -26 65 18 147 54 99 105 233 135 352 19
76 32 105 51 123 34 29 70 28 100 -3z m-447 -861 c12 -14 22 -36 22 -50 0 -65
-278 -290 -485 -391 l-55 -27 0 -263 0 -263 312 2 311 3 14 42 c17 49 81 125
135 159 129 81 301 61 410 -48 91 -90 123 -233 78 -350 -27 -72 -97 -151 -164
-185 -73 -38 -189 -43 -267 -14 -78 30 -141 88 -180 167 l-32 64 -318 0 c-200
0 -328 4 -346 11 -42 15 -92 68 -103 109 -15 54 -13 619 3 649 8 16 47 43 112
75 133 67 249 147 365 249 52 46 102 86 110 90 24 8 53 -3 78 -29z m-1533
-460 c123 -20 382 -20 509 0 90 15 101 15 123 1 51 -34 55 -100 8 -131 -25
-16 -187 -43 -262 -44 l-43 0 0 -359 c0 -347 -1 -359 -21 -385 -29 -37 -89
-37 -118 0 -20 26 -21 38 -21 385 l0 359 -42 0 c-24 0 -90 7 -147 15 -80 12
-110 20 -128 37 -32 30 -31 81 2 113 28 29 24 29 140 9z"/>
<path d="M2333 3825 c-259 -48 -489 -169 -679 -359 -250 -250 -374 -550 -374
-907 0 -274 69 -499 223 -729 64 -96 231 -263 327 -327 230 -154 456 -223 730
-223 356 0 655 124 906 374 191 191 314 424 358 681 21 117 21 333 0 450 -90
522 -516 949 -1038 1040 -108 18 -350 18 -453 0z m377 -275 c119 -47 213 -148
250 -268 15 -49 20 -93 20 -182 l0 -117 49 -7 c69 -9 136 -57 175 -126 l31
-55 3 -424 c2 -362 1 -431 -13 -477 -18 -63 -69 -125 -129 -157 -41 -22 -47
-22 -536 -22 -489 0 -495 0 -536 22 -60 32 -111 94 -129 157 -14 46 -15 115
-13 477 l3 424 31 55 c39 69 106 117 175 126 l49 7 0 117 c0 135 18 208 70
290 52 81 157 155 256 180 60 15 181 5 244 -20z"/>
<path d="M2472 3401 c-60 -21 -114 -67 -145 -126 -18 -33 -22 -61 -25 -167
l-4 -128 262 0 262 0 -4 128 c-3 106 -7 134 -25 168 -31 58 -93 110 -154 128
-67 20 -101 20 -167 -3z"/>
<path d="M2073 2796 l-28 -24 -3 -408 c-2 -296 1 -416 9 -437 24 -57 27 -57
509 -57 482 0 485 0 509 57 8 21 11 141 9 437 l-3 408 -28 24 -28 24 -459 0
-459 0 -28 -24z m598 -184 c173 -90 185 -322 24 -430 -33 -22 -53 -44 -58 -62
-8 -32 -50 -70 -77 -70 -27 0 -69 38 -77 70 -5 18 -25 40 -58 62 -161 108
-149 340 24 430 40 21 67 28 111 28 44 0 71 -7 111 -28z"/>
<path d="M2499 2451 c-20 -20 -29 -39 -29 -61 0 -43 47 -90 90 -90 22 0 41 9
61 29 20 20 29 39 29 61 0 43 -47 90 -90 90 -22 0 -41 -9 -61 -29z"/>
<path d="M4705 1866 c-42 -18 -82 -68 -95 -117 -22 -80 14 -158 90 -196 57
-29 105 -29 161 0 109 58 122 218 24 293 -44 33 -130 43 -180 20z"/>
<path d="M4207 506 c-50 -18 -76 -42 -98 -91 -69 -150 87 -300 238 -229 105
50 126 206 38 283 -32 28 -90 51 -125 51 -8 -1 -32 -7 -53 -14z"/>
<path d="M774 4936 c-72 -32 -112 -136 -85 -219 24 -72 119 -126 196 -111 79
14 145 95 145 175 0 53 -39 120 -86 146 -45 26 -121 30 -170 9z"/>
<path d="M4176 4927 c-47 -26 -86 -93 -86 -146 0 -20 10 -57 23 -81 52 -105
182 -128 272 -49 88 77 65 241 -41 285 -50 21 -122 17 -168 -9z"/>
<path d="M259 3567 c-147 -78 -104 -309 60 -325 64 -6 113 12 150 53 79 90 56
220 -49 273 -57 28 -105 28 -161 -1z"/>
<path d="M4700 3568 c-105 -53 -128 -183 -49 -273 37 -41 86 -59 150 -53 164
16 207 247 60 325 -56 29 -104 29 -161 1z"/>
<path d="M265 1864 c-68 -35 -95 -82 -95 -161 0 -66 33 -120 89 -150 56 -29
104 -29 161 0 103 51 128 179 53 268 -48 57 -144 77 -208 43z"/>
<path d="M796 505 c-111 -39 -153 -177 -81 -271 74 -97 235 -83 292 25 28 53
29 102 4 156 -22 49 -48 73 -98 91 -48 17 -68 17 -117 -1z"/>
</g>
</svg>
